<?xml version="1.0" standalone="no"?>
<!DOCTYPE svg PUBLIC "-//W3C//DTD SVG 20010904//EN"
 "http://www.w3.org/TR/2001/REC-SVG-20010904/DTD/svg10.dtd">
<svg version="1.0" xmlns="http://www.w3.org/2000/svg"
 width="35" height="35" viewBox="0 0 4500.000000 4500.000000"
 preserveAspectRatio="xMidYMid meet">
<g transform="translate(0.000000,4500.000000) scale(0.100000,-0.100000)"
fill="#087a5f" stroke="none">
<path d="M6365 32195 c-218 -57 -467 -168 -655 -292 -570 -377 -916 -942
-1067 -1743 l-27 -145 -3 -6862 -3 -6863 17112 0 17113 0 111 30 c333 89 669
279 935 528 405 380 657 903 771 1597 l23 140 2 6818 3 6817 -17112 0 -17113
-1 -90 -24z m31996 -1884 l156 -6 -882 -1405 -883 -1405 -73 -7 c-41 -4 -760
-26 -1599 -48 -1891 -50 -1752 -45 -1832 -64 -344 -80 -604 -343 -674 -683
-26 -125 -15 -311 24 -433 76 -231 229 -407 447 -514 188 -93 143 -89 940 -96
732 -8 861 -14 1105 -56 983 -169 1837 -689 2431 -1482 392 -522 634 -1123
726 -1802 25 -190 25 -754 0 -945 -116 -864 -483 -1612 -1087 -2215 -617 -618
-1389 -991 -2265 -1095 -237 -28 -818 -34 -4557 -41 l-3708 -7 0 1465 0 1465
418 6 c229 4 1985 9 3902 13 2010 3 3528 9 3588 14 131 12 265 56 373 122 391
241 533 719 334 1124 -128 261 -373 443 -651 483 -39 6 -378 12 -769 14 -741
5 -725 4 -1042 57 -549 93 -1101 322 -1560 647 -257 181 -578 484 -769 723
-449 565 -716 1199 -811 1925 -22 174 -26 708 -5 875 93 758 359 1395 828
1985 117 147 419 448 574 571 588 468 1277 749 2020 823 103 11 5031 3 5301
-8z m-20545 -1380 c442 -761 804 -1385 804 -1387 0 -2 -219 -4 -487 -4 -794 0
-2521 -33 -4692 -90 -414 -11 -836 -20 -936 -20 -346 0 -649 -47 -975 -152
-1106 -355 -1940 -1269 -2194 -2402 -66 -291 -93 -695 -67 -983 70 -773 399
-1480 941 -2023 543 -545 1209 -863 1990 -951 155 -18 517 -15 685 5 409 49
792 167 1142 351 242 127 561 354 787 560 l50 44 -1175 4 -1174 3 -105 26
c-294 74 -503 190 -711 397 -214 214 -342 451 -406 751 -26 122 -26 459 1 580
116 533 495 953 1002 1109 213 66 31 62 2718 61 1342 0 2441 -1 2442 -3 5 -6
4350 -6717 4367 -6744 l19 -33 -1939 0 -1938 1 -524 890 c-288 489 -527 891
-530 893 -3 3 -89 -68 -191 -156 -331 -287 -509 -425 -798 -617 -759 -506
-1626 -836 -2537 -966 -258 -36 -410 -47 -757 -52 -440 -7 -710 10 -1068 67
-1587 253 -2994 1101 -3962 2387 -418 557 -744 1194 -954 1866 -272 869 -343
1842 -203 2765 99 654 318 1323 625 1910 404 773 984 1468 1674 2006 963 753
2131 1199 3360 1285 63 5 1194 8 2514 7 l2398 -1 804 -1384z m5079 -698 c693
-1145 1262 -2082 1265 -2082 3 0 572 936 1265 2081 693 1144 1265 2082 1270
2084 6 2 785 3 1732 2 l1723 -3 -2260 -3822 -2260 -3822 0 -2326 0 -2325
-1430 0 -1430 0 0 58 c1 31 -20 1083 -46 2337 l-47 2280 -95 175 c-69 125
-4227 7145 -4394 7418 l-20 32 1733 -2 1733 -3 1261 -2082z"/>
<path d="M4806 15109 c-266 -39 -492 -172 -648 -383 -139 -187 -211 -412 -224
-701 -28 -615 259 -1073 751 -1201 136 -35 357 -44 495 -20 322 56 553 226
679 498 69 148 90 273 91 536 l0 172 -465 0 -465 0 0 -165 0 -165 261 0 262 0
-7 -60 c-25 -217 -174 -384 -388 -435 -83 -20 -244 -19 -321 1 -234 60 -390
243 -453 529 -24 111 -24 369 0 479 63 289 226 476 462 532 92 22 255 14 338
-15 129 -46 232 -140 294 -272 l37 -78 213 -1 213 0 -7 38 c-56 309 -292 567
-614 672 -136 44 -353 61 -504 39z"/>
<path d="M29770 15114 c-269 -41 -441 -125 -606 -295 -207 -214 -304 -490
-304 -863 0 -263 50 -485 149 -657 185 -322 466 -491 842 -506 578 -23 996
338 1078 931 14 97 14 368 1 461 -64 445 -323 771 -710 891 -108 34 -344 53
-450 38z m275 -389 c224 -57 381 -229 447 -490 20 -79 23 -114 22 -285 0 -177
-3 -204 -26 -291 -85 -315 -293 -489 -586 -489 -243 0 -425 114 -532 335 -58
118 -80 222 -87 400 -6 180 11 303 60 433 75 201 218 336 407 386 73 19 221
20 295 1z"/>
<path d="M32765 15113 c-336 -43 -587 -221 -665 -472 -59 -186 -24 -404 86
-537 73 -90 231 -186 389 -237 44 -14 160 -47 259 -72 289 -75 371 -110 444
-189 51 -55 70 -125 52 -194 -42 -169 -199 -263 -440 -263 -251 0 -419 108
-456 291 l-11 55 -207 3 -208 2 7 -62 c37 -343 261 -567 633 -633 129 -23 380
-21 508 4 309 60 514 230 580 482 24 88 23 255 0 334 -48 160 -147 275 -316
369 -99 54 -185 83 -435 147 -240 62 -343 102 -407 158 -100 88 -105 236 -12
340 79 88 196 126 365 119 207 -9 341 -97 380 -249 l13 -49 201 0 202 0 -4 53
c-24 302 -277 539 -632 592 -88 14 -253 18 -326 8z"/>
<path d="M6887 15018 c-253 -716 -767 -2181 -767 -2188 0 -6 89 -10 223 -10
l222 0 93 280 94 280 418 0 418 0 93 -277 94 -278 224 -3 223 -2 -6 25 c-4 14
-183 525 -398 1135 l-391 1110 -257 0 -257 0 -26 -72z m436 -846 c81 -240 147
-440 147 -444 0 -5 -135 -8 -300 -8 -165 0 -300 3 -300 8 -1 13 295 882 300
882 3 0 71 -197 153 -438z"/>
<path d="M8510 13955 l0 -1135 210 0 210 0 0 415 0 415 203 0 203 0 223 -415
223 -415 234 0 c129 0 234 2 234 4 0 2 -110 204 -244 449 -223 408 -242 446
-222 451 11 3 56 28 99 56 208 137 310 385 277 676 -28 259 -153 444 -365 545
-168 81 -246 89 -822 89 l-463 0 0 -1135z m965 763 c79 -23 129 -53 176 -106
73 -81 104 -210 80 -334 -25 -125 -90 -202 -209 -250 -53 -21 -76 -22 -324
-26 l-268 -4 0 372 0 372 248 -5 c174 -3 262 -9 297 -19z"/>
<path d="M10530 14338 c0 -447 4 -789 10 -842 21 -182 93 -331 220 -457 122
-122 272 -198 461 -234 120 -23 366 -21 484 4 372 77 621 333 664 681 7 53 11
368 11 842 l0 758 -210 0 -209 0 -3 -777 -3 -778 -23 -60 c-61 -161 -181 -265
-349 -300 -242 -51 -480 47 -576 236 -56 111 -57 127 -57 937 l0 742 -210 0
-210 0 0 -752z"/>
<path d="M12810 13955 l0 -1135 446 0 c353 0 469 3 553 16 471 69 777 378 857
862 19 117 22 373 5 487 -68 455 -328 761 -734 864 -133 35 -242 41 -689 41
l-438 0 0 -1135z m962 750 c306 -64 476 -299 495 -685 18 -378 -99 -641 -338
-759 -124 -61 -187 -72 -461 -78 l-238 -6 0 772 0 771 234 0 c171 0 255 -4
308 -15z"/>
<path d="M15590 15086 c0 -2 -178 -509 -395 -1126 -217 -617 -395 -1126 -395
-1131 0 -5 97 -9 223 -9 l222 0 93 280 94 280 417 0 418 0 95 -277 95 -278
221 -3 c156 -2 222 1 222 9 0 6 -178 516 -396 1135 l-397 1124 -258 0 c-143 0
-259 -2 -259 -4z m413 -914 c81 -240 147 -440 147 -444 0 -5 -135 -8 -300 -8
-165 0 -300 3 -300 8 0 14 295 882 300 882 3 0 71 -197 153 -438z"/>
<path d="M17813 15076 c3 -7 188 -328 411 -712 l406 -699 0 -422 0 -423 210 0
210 0 0 422 0 421 405 699 c223 384 408 705 412 713 5 13 -25 15 -232 13
l-238 -3 -275 -497 c-152 -274 -278 -498 -282 -498 -3 0 -130 224 -281 498
l-276 497 -237 3 c-200 2 -237 0 -233 -12z"/>
<path d="M20547 15018 c-259 -732 -767 -2181 -767 -2188 0 -6 86 -10 223 -10
l222 0 93 280 94 280 418 0 418 0 93 -277 94 -278 223 -3 c148 -1 222 1 222 8
0 6 -178 515 -395 1131 -217 616 -395 1122 -395 1125 0 2 -116 4 -259 4 l-258
0 -26 -72z m436 -846 c81 -240 147 -440 147 -444 0 -5 -135 -8 -300 -8 -165 0
-300 3 -300 8 -1 13 295 882 300 882 3 0 71 -197 153 -438z"/>
<path d="M22170 13955 l0 -1135 200 0 200 0 0 775 c0 437 4 775 9 775 5 0 93
-210 197 -467 104 -258 243 -603 310 -768 l121 -300 154 -3 154 -2 310 765
c170 422 313 768 317 771 4 3 8 -344 8 -770 l0 -776 200 0 200 0 0 1135 0
1135 -254 0 -254 0 -26 -62 c-14 -35 -165 -403 -335 -818 -170 -415 -313 -756
-318 -757 -5 -2 -159 365 -344 814 l-335 818 -257 3 -257 2 0 -1135z"/>
<path d="M25630 15068 c-10 -24 -790 -2240 -790 -2245 0 -2 101 -3 224 -3
l224 0 94 280 93 280 420 -2 420 -3 94 -277 93 -278 225 0 c209 0 224 1 219
18 -4 9 -183 519 -400 1132 l-393 1115 -257 3 -256 2 -10 -22z m419 -901 l150
-447 -304 0 -303 0 150 451 c82 247 152 448 154 446 2 -2 71 -205 153 -450z"/>
<path d="M26860 14915 l0 -175 350 0 350 0 0 -960 0 -960 210 0 210 0 0 960 0
960 350 0 350 0 0 175 0 175 -910 0 -910 0 0 -175z"/>
<path d="M34010 14915 l0 -175 350 0 350 0 0 -960 0 -960 210 0 210 0 0 960 0
960 345 0 345 0 0 175 0 175 -905 0 -905 0 0 -175z"/>
<path d="M36160 13955 l0 -1135 745 0 745 0 0 175 0 175 -535 0 -535 0 0 305
0 305 490 0 490 0 0 175 0 175 -490 0 -490 0 0 305 0 305 530 0 530 0 0 175 0
175 -740 0 -740 0 0 -1135z"/>
<path d="M38050 13955 l0 -1135 745 0 745 0 0 175 0 175 -535 0 -535 0 0 305
0 305 490 0 490 0 0 175 0 175 -490 0 -490 0 0 305 0 305 530 0 530 0 0 175 0
175 -740 0 -740 0 0 -1135z"/>
<path d="M39940 13955 l0 -1135 705 0 705 0 0 175 0 175 -495 0 -495 0 0 960
0 960 -210 0 -210 0 0 -1135z"/>
</g>
</svg>
